<svg version="1.1" xmlns="http://www.w3.org/2000/svg" xmlns:xlink="http://www.w3.org/1999/xlink" width="163.40376" height="243.34711" viewBox="0,0,163.40376,243.34711"><defs><linearGradient x1="233.77557" y1="169.93645" x2="230.57141" y2="146.83689" gradientUnits="userSpaceOnUse" id="color-1"><stop offset="0" stop-color="#ffe3bd"/><stop offset="0.2976" stop-color="#fde1ba"/><stop offset="0.5011" stop-color="#f7d9b1"/><stop offset="0.6765" stop-color="#eccba2"/><stop offset="0.836" stop-color="#dcb88c"/><stop offset="0.9834" stop-color="#c99f71"/><stop offset="1" stop-color="#c69c6d"/></linearGradient><radialGradient cx="221.42924" cy="107.45139" r="65.71553" gradientUnits="userSpaceOnUse" id="color-2"><stop offset="0" stop-color="#ffe3bd"/><stop offset="0.2976" stop-color="#fde1ba"/><stop offset="0.5011" stop-color="#f7d9b1"/><stop offset="0.6765" stop-color="#eccba2"/><stop offset="0.836" stop-color="#dcb88c"/><stop offset="0.9834" stop-color="#c99f71"/><stop offset="1" stop-color="#c69c6d"/></radialGradient><linearGradient x1="230.00582" y1="104.21858" x2="230.00582" y2="127.74145" gradientUnits="userSpaceOnUse" id="color-3"><stop offset="0" stop-color="#ffe3bd"/><stop offset="0.2563" stop-color="#fee0bb"/><stop offset="0.4316" stop-color="#f9d7b5"/><stop offset="0.5827" stop-color="#f2c8ab"/><stop offset="0.7201" stop-color="#e8b29d"/><stop offset="0.8482" stop-color="#db968a"/><stop offset="0.9679" stop-color="#cb7474"/><stop offset="1" stop-color="#c66a6d"/></linearGradient></defs><g transform="translate(-158.53649,-58.32644)"><g data-paper-data="{&quot;isPaintingLayer&quot;:true}" fill-rule="nonzero" stroke-linecap="butt" stroke-linejoin="miter" stroke-miterlimit="10" stroke-dasharray="" stroke-dashoffset="0" style="mix-blend-mode: normal"><path d="M296.38156,220.97262c-0.63657,44.55974 13.7923,82.54161 -68.74931,80.6319c-81.26847,-1.80361 -67.90055,-36.07217 -68.74931,-80.6319c-1.06095,-64.71771 27.69069,-75.96374 65.56647,-77.44907c53.89606,-2.12189 72.7809,20.15798 71.93215,77.44907z" fill="#0071bc" stroke="none" stroke-width="1"/><path d="M216.67291,147.13077c0,-10.18508 4.45597,-20.58235 14.11058,-20.58235c9.65461,0 13.6862,10.39727 13.6862,20.58235c0,10.18508 -3.9255,16.55076 -13.6862,16.55076c-9.7607,0 -14.11058,-6.25958 -14.11058,-16.55076z" fill="url(#color-1)" stroke="none" stroke-width="1"/><path d="M199.46226,104.49178c1.01196,-0.16234 2.14891,1.06399 3.16797,3.17638c1.0201,2.11222 1.92231,5.11051 2.46479,8.4921c0.54248,3.38158 0.62338,6.51163 0.31516,8.83694c-0.30718,2.32515 -1.00349,3.84557 -2.01545,4.00791c-1.01196,0.16234 -2.14891,-1.06399 -3.16797,-3.17638c-1.0201,-2.11222 -1.92231,-5.11051 -2.46479,-8.4921c-0.54248,-3.38158 -0.62338,-6.51163 -0.31516,-8.83694c0.30718,-2.32515 1.00349,-3.84557 2.01545,-4.00791z" fill="#edcdae" stroke="none" stroke-width="1"/><path d="M254.30695,116.1016c0.54248,-3.38158 1.44469,-6.37987 2.46479,-8.4921c1.01906,-2.11239 2.156,-3.33872 3.16797,-3.17638c1.01196,0.16234 1.70827,1.68276 2.01545,4.00791c0.30823,2.32532 0.22732,5.45536 -0.31516,8.83694c-0.54248,3.38158 -1.44469,6.37987 -2.46479,8.4921c-1.01906,2.11239 -2.156,3.33872 -3.16797,3.17638c-1.01196,-0.16234 -1.70827,-1.68276 -2.01545,-4.00791c-0.30823,-2.32532 -0.22732,-5.45536 0.31516,-8.83694z" fill="#edcdae" stroke="none" stroke-width="1"/><path d="M257.41324,105.3295c0,23.76519 -8.80585,47.74257 -28.32726,47.74257c-19.52141,0 -27.37241,-23.97738 -27.37241,-47.74257c0,-23.76519 7.851,-38.19406 27.37241,-38.19406c19.52141,0 28.32726,14.42887 28.32726,38.19406z" fill="url(#color-2)" stroke="none" stroke-width="1"/><path d="M231.63225,65.01355c0,0 15.8081,-4.98645 22.91644,6.36568c7.74491,12.41307 0.95485,54.74482 2.0158,46.68163c0,0 0.95485,-37.13311 -10.92774,-38.19406c-13.89839,-1.06095 0,10.60946 0,10.60946c0,0 -42.75613,-6.36568 -43.81707,-19.09703c0,0 14.95934,-21.21892 40.84642,-9.54851" fill="#000000" stroke="none" stroke-width="1"/><path d="M206.9122,79.23022c-3.28893,9.12414 -4.45597,38.83063 -4.45597,38.83063c0,0 -7.74491,-29.70649 -5.72911,-41.3769c2.0158,-11.67041 8.91195,-9.54851 8.91195,-9.54851c0,0 1.37923,9.01804 1.27314,12.09479z" fill="#000000" stroke="none" stroke-width="1"/><g stroke="none" stroke-width="1"><path d="M233.11757,107.98186c0,6.79006 7.9571,16.97514 -3.50112,16.44466c-9.44242,-0.42438 -3.50112,-9.65461 -3.50112,-16.44466" fill="url(#color-3)"/><path d="M233.11757,107.98186c0.21219,1.69751 0.74266,3.39503 1.27314,4.98645c0.53047,1.59142 1.16704,3.18284 1.69751,4.98645c0.21219,0.84876 0.42438,1.69751 0.42438,2.65237c0,0.95485 -0.21219,2.0158 -0.84876,2.86455c-0.63657,0.84876 -1.69751,1.27314 -2.54627,1.48532c-0.95485,0.21219 -1.80361,0.31828 -2.75846,0.31828c-0.84876,0 -1.80361,-0.10609 -2.75846,-0.31828c-0.95485,-0.21219 -1.9097,-0.63657 -2.65237,-1.37923c-0.74266,-0.74266 -1.16704,-1.80361 -1.27314,-2.75846c-0.10609,-0.95485 0,-1.9097 0.10609,-2.75846c0.53047,-3.50112 2.0158,-6.68396 2.33408,-10.07899c0.21219,3.50112 -0.84876,6.89615 -1.16704,10.18508c-0.10609,1.59142 -0.10609,3.39503 0.95485,4.24378c0.95485,0.95485 2.65237,1.16704 4.34988,1.16704c1.59142,0 3.39503,-0.21219 4.24378,-1.16704c0.84876,-0.95485 0.74266,-2.75846 0.42438,-4.34988c-0.63657,-3.18284 -2.0158,-6.57787 -1.80361,-10.07899z" fill="#e8a27c"/></g><g stroke="none" stroke-width="1"><path d="M220.17403,100.02477c0.96546,0 1.84074,0.59413 2.47519,1.55429c0.63338,0.96122 1.02593,2.2874 1.02593,3.75044c0,1.46304 -0.39255,2.78923 -1.02593,3.75044c-0.63445,0.96016 -1.50973,1.55429 -2.47519,1.55429c-0.96546,0 -1.84074,-0.59413 -2.47519,-1.55429c-0.63338,-0.96122 -1.02593,-2.2874 -1.02593,-3.75044c0,-1.46304 0.39255,-2.78923 1.02593,-3.75044c0.63445,-0.96016 1.50973,-1.55429 2.47519,-1.55429z" fill="#ffffff"/><path d="M223.56906,104.90512c0,0.10609 0,0.31828 0,0.42438c0,2.97065 -1.59142,5.30473 -3.50112,5.30473c-1.9097,0 -3.50112,-2.33408 -3.50112,-5.30473c0,-2.97065 1.59142,-5.30473 3.50112,-5.30473c0.42438,0 0.74266,0.10609 1.06095,0.21219c-0.31828,0.53047 -0.53047,1.27314 -0.53047,2.0158c0,1.69751 0.95485,3.07674 2.0158,3.07674c0.31828,0 0.74266,-0.10609 0.95485,-0.42438z" fill="#000000"/></g><g stroke="none" stroke-width="1"><path d="M237.99792,100.02477c0.96546,0 1.84074,0.59413 2.47519,1.55429c0.63338,0.96122 1.02593,2.2874 1.02593,3.75044c0,1.46304 -0.39255,2.78923 -1.02593,3.75044c-0.63445,0.96016 -1.50973,1.55429 -2.47519,1.55429c-0.96546,0 -1.84074,-0.59413 -2.47519,-1.55429c-0.63338,-0.96122 -1.02593,-2.2874 -1.02593,-3.75044c0,-1.46304 0.39255,-2.78923 1.02593,-3.75044c0.63445,-0.96016 1.50973,-1.55429 2.47519,-1.55429z" fill="#ffffff"/><path d="M241.49905,104.90512c0,0.10609 0,0.31828 0,0.42438c0,2.97065 -1.59142,5.30473 -3.50112,5.30473c-1.9097,0 -3.50112,-2.33408 -3.50112,-5.30473c0,-2.97065 1.59142,-5.30473 3.50112,-5.30473c0.42438,0 0.74266,0.10609 1.06095,0.21219c-0.31828,0.53047 -0.53047,1.27314 -0.53047,2.0158c0,1.69751 0.95485,3.07674 2.0158,3.07674c0.31828,0 0.63657,-0.10609 0.95485,-0.42438z" fill="#000000"/></g><path d="M212.64131,122.30463c0.74266,1.69751 1.9097,3.07674 3.28893,4.24378c1.37923,1.16704 2.86455,2.12189 4.56207,2.75846c0.84876,0.31828 1.69751,0.53047 2.54627,0.84876c0.84876,0.21219 1.69751,0.42438 2.65237,0.42438l1.37923,0.21219h1.37923c0.84876,0.10609 1.80361,0 2.65237,0c1.80361,0 3.60722,-0.31828 5.30473,-0.63657c1.69751,-0.42438 3.39503,-0.95485 5.09254,-1.80361c1.59142,-0.84876 3.07674,-1.80361 4.45597,-2.97065c1.37923,-1.16704 2.54627,-2.54627 3.60722,-4.13769c-1.59142,3.28893 -4.45597,6.04739 -7.63881,7.851c-1.59142,0.95485 -3.39503,1.59142 -5.19864,2.12189c-1.80361,0.42438 -3.71331,0.74266 -5.51692,0.74266c-3.71331,0.10609 -7.53272,-0.21219 -10.92774,-1.80361c-1.69751,-0.74266 -3.28893,-1.80361 -4.66816,-3.18284c-1.37923,-1.37923 -2.44018,-2.86455 -2.97065,-4.66816z" fill="#e8a27c" stroke="none" stroke-width="1"/><path d="M223.67515,134.39942c-0.10609,0.10609 0.10609,0.31828 0.21219,0.42438c0.10609,0.10609 0.21219,0.21219 0.31828,0.31828c0.21219,0.21219 0.53047,0.42438 0.74266,0.53047c0.53047,0.31828 1.06095,0.63657 1.69751,0.84876c1.16704,0.42438 2.33408,0.74266 3.60722,0.74266c1.27314,0 2.44018,-0.21219 3.50112,-0.74266c1.06095,-0.53047 2.0158,-1.48532 2.75846,-2.54627c-0.31828,1.27314 -1.27314,2.44018 -2.33408,3.18284c-1.16704,0.74266 -2.54627,1.06095 -3.9255,1.06095c-1.37923,0 -2.65237,-0.42438 -3.9255,-1.06095c-0.63657,-0.31828 -1.16704,-0.74266 -1.69751,-1.16704c-0.21219,-0.21219 -0.53047,-0.42438 -0.63657,-0.74266c-0.10609,-0.10609 -0.21219,-0.31828 -0.31828,-0.42438c0,-0.10609 -0.10609,-0.31828 0,-0.42438z" fill="#e8a27c" stroke="none" stroke-width="1"/><path d="M245.00017,98.43335c-0.95485,-1.27314 -1.9097,-2.65237 -2.97065,-3.60722c-0.53047,-0.53047 -1.16704,-0.84876 -1.80361,-0.95485c-0.63657,-0.10609 -1.37923,0 -2.12189,0.31828c0.42438,-0.74266 1.27314,-1.27314 2.22799,-1.27314c0.95485,0 1.80361,0.53047 2.44018,1.16704c0.63657,0.63657 1.06095,1.27314 1.48532,2.0158c0.31828,0.74266 0.63657,1.48532 0.74266,2.33408z" fill="#000000" stroke="none" stroke-width="1"/><path d="M213.17179,97.3724c0.10609,-0.84876 0.42438,-1.59142 0.74266,-2.33408c0.42438,-0.74266 0.84876,-1.48532 1.48532,-2.0158c0.63657,-0.63657 1.48532,-1.16704 2.44018,-1.16704c0.95485,0 1.80361,0.63657 2.22799,1.27314c-0.84876,-0.21219 -1.48532,-0.42438 -2.12189,-0.21219c-0.63657,0.10609 -1.16704,0.53047 -1.69751,0.95485c-0.53047,0.53047 -1.06095,1.06095 -1.59142,1.59142z" fill="#000000" stroke="none" stroke-width="1"/><g><path d="M276.66555,166.9611c7.49977,-12.66892 15.88166,-23.21044 23.36468,-30.00722c7.48302,-6.79678 14.06663,-9.8479 17.97038,-7.53696c3.90375,2.31095 4.39545,9.55053 2.03587,19.38029c-2.35958,9.82976 -7.5699,22.24879 -15.06967,34.91771c-7.49977,12.66892 -15.88166,23.21044 -23.36468,30.00722c-7.48302,6.79678 -14.06663,9.8479 -17.97038,7.53696c-3.90375,-2.31095 -4.39545,-9.55053 -2.03587,-19.38029c2.35958,-9.82976 7.5699,-22.24879 15.06967,-34.91771z" fill="#edbe7a" stroke="#fbb03b" stroke-width="0.9535"/><path d="M266.27975,196.65437c0.28118,-0.41051 1.45766,-0.15118 3.13205,0.59965c1.67439,0.75083 3.84521,1.99345 6.11481,3.54806c2.2696,1.55461 4.2126,3.12983 5.51767,4.41984c1.30507,1.29 1.97193,2.29332 1.69075,2.70382c-0.28118,0.41051 -1.45766,0.15118 -3.13205,-0.59965c-1.67439,-0.75083 -3.84521,-1.99345 -6.11481,-3.54806c-2.2696,-1.55461 -4.2126,-3.12983 -5.51767,-4.41984c-1.30507,-1.29 -1.97193,-2.29332 -1.69075,-2.70382z" fill="#a67c52" stroke="none" stroke-width="1"/><path d="M271.64067,187.89547c0.28118,-0.41051 1.45766,-0.15118 3.13205,0.59965c1.67439,0.75083 3.84521,1.99345 6.11481,3.54806c2.2696,1.55461 4.2126,3.12983 5.51767,4.41984c1.30507,1.29 1.97193,2.29332 1.69075,2.70382c-0.28118,0.41051 -1.45766,0.15118 -3.13205,-0.59965c-1.67439,-0.75083 -3.84521,-1.99345 -6.11481,-3.54806c-2.2696,-1.55461 -4.2126,-3.12983 -5.51767,-4.41984c-1.30507,-1.29 -1.97193,-2.29332 -1.69075,-2.70382z" fill="#a67c52" stroke="none" stroke-width="1"/><path d="M276.98078,179.07662c0.28118,-0.41051 1.45766,-0.15118 3.13205,0.59965c1.67439,0.75083 3.84521,1.99345 6.11481,3.54806c2.2696,1.55461 4.2126,3.12983 5.51767,4.41984c1.30507,1.29 1.97193,2.29332 1.69075,2.70382c-0.28118,0.41051 -1.45766,0.15118 -3.13205,-0.59965c-1.67439,-0.75083 -3.84521,-1.99345 -6.11481,-3.54806c-2.2696,-1.55461 -4.2126,-3.12983 -5.51767,-4.41984c-1.30507,-1.29 -1.97193,-2.29332 -1.69075,-2.70382z" fill="#a67c52" stroke="none" stroke-width="1"/><path d="M282.19422,170.41201c0.28118,-0.41051 1.45766,-0.15118 3.13205,0.59965c1.67439,0.75083 3.84521,1.99345 6.11481,3.54806c2.2696,1.55461 4.2126,3.12983 5.51767,4.41984c1.30507,1.29 1.97193,2.29332 1.69075,2.70382c-0.28118,0.41051 -1.45766,0.15118 -3.13205,-0.59965c-1.67439,-0.75083 -3.84521,-1.99345 -6.11481,-3.54806c-2.2696,-1.55461 -4.2126,-3.12983 -5.51767,-4.41984c-1.30507,-1.29 -1.97193,-2.29332 -1.69075,-2.70382z" fill="#a67c52" stroke="none" stroke-width="1"/><path d="M287.46761,161.59315c0.28118,-0.41051 1.45766,-0.15118 3.13205,0.59965c1.67439,0.75083 3.84521,1.99345 6.11481,3.54806c2.2696,1.55461 4.2126,3.12983 5.51767,4.41984c1.30507,1.29 1.97193,2.29332 1.69075,2.70382c-0.28118,0.41051 -1.45766,0.15118 -3.13205,-0.59965c-1.67439,-0.75083 -3.84521,-1.99345 -6.11481,-3.54806c-2.2696,-1.55461 -4.2126,-3.12983 -5.51767,-4.41984c-1.30507,-1.29 -1.97193,-2.29332 -1.69075,-2.70382z" fill="#a67c52" stroke="none" stroke-width="1"/><path d="M292.741,152.7743c0.28118,-0.41051 1.45766,-0.15118 3.13205,0.59965c1.67439,0.75083 3.84521,1.99345 6.11481,3.54806c2.2696,1.55461 4.2126,3.12983 5.51767,4.41984c1.30507,1.29 1.97193,2.29332 1.69075,2.70382c-0.28118,0.41051 -1.45766,0.15118 -3.13205,-0.59965c-1.67439,-0.75083 -3.84521,-1.99345 -6.11481,-3.54806c-2.2696,-1.55461 -4.2126,-3.12983 -5.51767,-4.41984c-1.30507,-1.29 -1.97193,-2.29332 -1.69075,-2.70382z" fill="#a67c52" stroke="none" stroke-width="1"/><path d="M298.0144,143.95544c0.28118,-0.41051 1.45766,-0.15118 3.13205,0.59965c1.67439,0.75083 3.84521,1.99345 6.11481,3.54806c2.2696,1.55461 4.2126,3.12983 5.51767,4.41984c1.30507,1.29 1.97193,2.29332 1.69075,2.70382c-0.28118,0.41051 -1.45766,0.15118 -3.13205,-0.59965c-1.67439,-0.75083 -3.84521,-1.99345 -6.11481,-3.54806c-2.2696,-1.55461 -4.2126,-3.12983 -5.51767,-4.41984c-1.30507,-1.29 -1.97193,-2.29332 -1.69075,-2.70382z" fill="#a67c52" stroke="none" stroke-width="1"/><path d="M273.75181,166.86437l4.77426,-7.851l1.16704,8.27538l6.79006,-2.86455l-1.06095,7.9571l6.36568,-4.34988l-1.9097,7.42662l5.41083,-4.98645l1.59142,9.7607l6.36568,-4.34988l0.42438,7.74491l6.36568,-4.34988l-36.07217,68.43102l-2.44018,8.16928l-5.72911,-11.24603l-16.76295,-11.56431l-13.89839,-1.9097l8.69976,-10.29118l29.91868,-54.00216" fill="#e6e6e6" stroke="none" stroke-width="1"/><path d="M271.31163,177.68602c0,0 -23.02253,41.2708 -17.50561,47.53039c5.51692,6.25958 14.85325,10.18508 14.85325,10.18508l12.83745,-13.58011l-15.27762,-5.51692c0,0 10.92774,0 20.58235,-7.74491c9.65461,-7.63881 11.98869,-14.42887 11.98869,-14.42887l-28.64554,54.53263l-3.9255,-8.91195l-14.85325,-10.18508l-11.03384,-1.16704z" fill="#cccccc" stroke="none" stroke-width="1"/></g></g></g></svg>